<svg xmlns="http://www.w3.org/2000/svg" xmlns:xlink="http://www.w3.org/1999/xlink" width="71" height="33" viewBox="0 0 71 33"><defs><path id="ua5la" d="M810 1791.191c0-1.205.986-2.19 2.191-2.19h65.988c1.205 0 2.191.985 2.191 2.19v28.051a2.198 2.198 0 0 1-2.191 2.192H812.19a2.198 2.198 0 0 1-2.191-2.192z"/><path id="ua5lb" d="M810 1792.184h70.37v26.064H810z"/><path id="ua5lc" d="M869.636 1798.954a5.855 5.855 0 0 0-5.844 5.844 5.855 5.855 0 0 0 5.844 5.844 5.855 5.855 0 0 0 5.844-5.844 5.855 5.855 0 0 0-5.844-5.844z"/><path id="ua5ld" d="M821.467 1798.954a5.855 5.855 0 0 0-5.844 5.844 5.855 5.855 0 0 0 5.844 5.844 5.855 5.855 0 0 0 5.844-5.844 5.855 5.855 0 0 0-5.844-5.844z"/><path id="ua5le" d="M869.636 1814.031c-5.085 0-9.234-4.147-9.234-9.233s4.148-9.233 9.234-9.233 9.233 4.147 9.233 9.233-4.147 9.233-9.233 9.233zm-38.936-9.233c0 5.086-4.147 9.233-9.233 9.233s-9.233-4.147-9.233-9.233 4.146-9.233 9.233-9.233c5.086 0 9.233 4.147 9.233 9.233zm38.478-10.987c-5.41-.125-7.954 3.344-11.645 7.623l-3.482 4.036 5.514 6.6c1.314 2.029-1.193 4.042-2.75 2.186l-5.097-6.081-4.968 5.759c-1.582 1.833-4.06-.215-2.719-2.224l5.393-6.272-3.533-4.215 2.273-2.814 3.593 4.316 3.098-3.603c1.52-1.767 3.07-4.108 5.079-5.311H810v22.812h11.674c5.411 0 7.867-3.235 11.459-7.597l3.388-4.116-5.666-6.472c-1.359-1.997 1.101-4.067 2.7-2.248l5.235 5.963 4.836-5.872c1.538-1.87 4.063.12 2.769 2.16l-5.248 6.396 3.63 4.132-2.287 2.708-3.613-4.075-3.013 3.673c-1.478 1.801-2.975 4.098-4.956 5.348h49.462v-22.813h-11.192z"/></defs><g><g transform="translate(-810 -1789)"><g><use fill="#eea52d" xlink:href="#ua5la"/></g><g><use fill="#fff" xlink:href="#ua5lb"/></g><g><use fill="#ed1c24" xlink:href="#ua5lc"/></g><g><use fill="#ed1c24" xlink:href="#ua5ld"/></g><g><use fill="#ed1c24" xlink:href="#ua5le"/></g></g></g></svg>