<svg xmlns="http://www.w3.org/2000/svg" xmlns:xlink="http://www.w3.org/1999/xlink" width="40" height="29" viewBox="0 0 40 29"><defs><path id="r0fga" d="M312.699 201.32a.939.939 0 0 1 .301.676l-.065 13.131c0 .477-.367.858-.815.858h-1.653c-.448 0-.815-.39-.815-.866 0-.477.367-.867.815-.867h.847l.057-11.858-5.31-4.677h-6.565v16.553h1.637c.448 0 .814.39.814.866s-.366.866-.814.866h-9.945c-.448 0-.815-.39-.815-.866s.367-.866.815-.866h6.679v-20.538h-19.125v5.475c0 .476-.366.866-.814.866-.448 0-.815-.39-.815-.866v-6.34c0-.477.367-.867.815-.867h20.745c.448 0 .814.39.814.866v3.118h6.859c.195 0 .374.07.52.2l5.833 5.136zm-36.384.303c0-.476.367-.866.815-.866h9.88c.447 0 .814.39.814.866 0 .477-.367.867-.815.867h-9.88c-.447 0-.814-.39-.814-.867zm-.847 4.8c-.448 0-.815-.39-.806-.876 0-.476.366-.857.814-.857h.008l9.88.06c.448 0 .815.39.806.875-.008.477-.374.858-.822.858l-9.88-.06zm8.226 3.992h-9.88c-.447 0-.814-.39-.814-.866s.367-.866.815-.866h9.88c.447 0 .814.39.814.866 0 .485-.367.866-.815.866zm-2.5 4.72c0 .477-.367.867-.815.867h-2.451c-.448 0-.815-.39-.815-.866v-3.17c0-.477.367-.867.815-.867.448 0 .814.39.814.867v2.304h1.637c.448 0 .815.39.815.866zm6.622 1.967c0-1.195-.896-2.165-2.004-2.165-1.124 0-2.069.987-2.069 2.165s.945 2.166 2.07 2.166c1.107 0 2.003-.97 2.003-2.166zm1.629 0c0 2.148-1.63 3.898-3.633 3.898-.977 0-1.898-.407-2.606-1.143a3.957 3.957 0 0 1-1.092-2.755c0-1.04.391-2.01 1.092-2.754.7-.737 1.629-1.144 2.606-1.144 2.004 0 3.633 1.75 3.633 3.898zm18.293-13.512l-1.954-1.871h-3.047v5.379h5.001zm1.36-1.023a.892.892 0 0 1 .27.642v4.755c0 .476-.367.866-.815.866h-6.63c-.448 0-.815-.39-.815-.866v-7.103c0-.476.367-.866.815-.866h4.178c.204 0 .4.078.546.225zm-1.392 14.535c0-1.195-.896-2.165-2.004-2.165-1.124 0-2.069.987-2.069 2.165s.945 2.166 2.07 2.166c1.107 0 2.003-.97 2.003-2.166zm1.629 0c0 2.148-1.63 3.898-3.633 3.898-.977 0-1.898-.407-2.606-1.143a3.957 3.957 0 0 1-1.092-2.755c0-1.04.391-2.01 1.092-2.754.7-.737 1.629-1.144 2.606-1.144 2.004 0 3.633 1.75 3.633 3.898z"/></defs><g><g transform="translate(-273 -192)"><use fill="#ff5959" xlink:href="#r0fga"/></g></g></svg>