<svg xmlns="http://www.w3.org/2000/svg" xmlns:xlink="http://www.w3.org/1999/xlink" width="90" height="79" viewBox="0 0 90 79"><defs><path id="tm5ka" d="M721.416 184.28h-75.988a5.437 5.437 0 0 0-5.428 5.428v48.85a5.433 5.433 0 0 0 5.428 5.428h75.988a5.43 5.43 0 0 0 5.428-5.428v-48.85a5.433 5.433 0 0 0-5.428-5.428z"/><path id="tm5kb" d="M640 211.42v-16.284h86.844v16.283z"/><path id="tm5kc" d="M666.425 225.702h-10.856a2.715 2.715 0 0 1 0-5.427h10.856a2.715 2.715 0 0 1 0 5.427z"/><path id="tm5kd" d="M728.844 209.126v-21.418a5.433 5.433 0 0 0-5.428-5.428h-43.422v5.428c0 17 6.47 27.35 23.1 36.925a8.169 8.169 0 0 0 4.039 1.07c1.411 0 2.811-.37 4.054-1.08 8.229-4.728 13.96-9.662 17.657-15.497z"/><path id="tm5ke" d="M727.777 173.361l-18.997-8.141a2.724 2.724 0 0 0-2.144 0l-18.997 8.141a2.707 2.707 0 0 0-1.639 2.492v10.855c0 14.932 5.52 23.66 20.36 32.208a2.723 2.723 0 0 0 2.702 0c14.84-8.527 20.36-17.254 20.36-32.208v-10.855a2.704 2.704 0 0 0-1.645-2.492z"/><path id="tm5kf" d="M705.141 201.985h-.114a2.724 2.724 0 0 1-2.144-1.205l-5.428-8.142a2.711 2.711 0 0 1 .755-3.761 2.714 2.714 0 0 1 3.761.754l3.371 5.054 8.532-10.671a2.726 2.726 0 0 1 3.816-.424 2.716 2.716 0 0 1 .423 3.816l-10.855 13.57a2.736 2.736 0 0 1-2.117 1.009z"/></defs><g><g transform="translate(-640 -165)"><g><use fill="#2196f3" xlink:href="#tm5ka"/></g><g><use fill="#455a64" xlink:href="#tm5kb"/></g><g><g><use fill="#fafafa" xlink:href="#tm5kc"/></g><g><use fill="#fafafa" xlink:href="#tm5kd"/></g></g><g><use fill="#1eb04f" xlink:href="#tm5ke"/></g><g><use fill="#fafafa" xlink:href="#tm5kf"/></g></g></g></svg>