<svg xmlns="http://www.w3.org/2000/svg" width="40" height="40" viewBox="0 0 40 40"><g><g><g><path fill="#ccc" d="M38.667 32H27.703l-.289-.462A8.313 8.313 0 0 1 27.245 23a.666.666 0 0 0-.087-.781l-5.463-5.96a2.223 2.223 0 0 1 3.21-3.075l10.624 10.62.942-.942-2.466-2.467.684-.266a3.334 3.334 0 0 0 1.911-4.307l-2.257-5.86 2.16 2.165a7.383 7.383 0 0 1 2.164 5.2zm0 6.667H28v-5.334h10.667zM9.325 28.472a2 2 0 0 1-2.586-1.147L5.615 24.4l7.958-3.067v-.004H24.54l.867.945zm.549-7.139l-4.74 1.826-.702-1.826zM1.334 18V3.333a2 2 0 0 1 2-2H30a2 2 0 0 1 2 2v4.238h-.006l.006.015V18c-.005.116-.02.232-.045.345l-6.107-6.107a3.557 3.557 0 0 0-5.133 4.918L23.318 20H3.333a2 2 0 0 1-2-2zm32-6.95l2.023 5.252a2 2 0 0 1-1.149 2.585l-1.156.446c.185-.42.28-.874.281-1.333zm0-3.987v-3.73A3.338 3.338 0 0 0 30 0H3.333A3.338 3.338 0 0 0 0 3.333V18a3.327 3.327 0 0 0 2.99 3.299l2.505 6.505a3.334 3.334 0 0 0 4.31 1.912l15.648-6.028a9.637 9.637 0 0 0 .83 8.557l.384.612v6.476c0 .369.298.667.666.667h12a.666.666 0 0 0 .667-.667V17.328a8.725 8.725 0 0 0-2.554-6.145z"/></g><g><path fill="#ccc" d="M4 7.6v-.933h1.333V5.333H4V4.4c0-.22.18-.4.4-.4h3.2c.22 0 .4.18.4.4v.933H6.667v1.334H8V7.6a.4.4 0 0 1-.4.4H4.4a.4.4 0 0 1-.4-.4zm3.6 1.733c.957 0 1.733-.776 1.733-1.733V4.4c0-.957-.776-1.733-1.733-1.733H4.4c-.957 0-1.733.776-1.733 1.733v3.2c0 .957.776 1.733 1.733 1.733z"/></g><g><path fill="#ccc" d="M3.333 11.333H6v1.334H3.333z"/></g><g><path fill="#ccc" d="M3.333 15.333H6v1.334H3.333z"/></g><g><path fill="#ccc" d="M15.333 15.333H18v1.334h-2.667z"/></g><g><path fill="#ccc" d="M7.333 11.333H10v1.334H7.333z"/></g><g><path fill="#ccc" d="M11.333 11.333H14v1.334h-2.667z"/></g><g><path fill="#ccc" d="M15.333 11.333H18v1.334h-2.667z"/></g><g><path fill="#ccc" d="M28 3.333h1.333v2H28z"/></g><g><path fill="#ccc" d="M25.333 3.333h1.334v2h-1.334z"/></g><g><path fill="#ccc" d="M22.667 3.333H24v2h-1.333z"/></g><g><path fill="#ccc" d="M20 3.333h1.333v2H20z"/></g><g><path fill="#ccc" d="M29.333 34.667h1.334V36h-1.334z"/></g></g></g></svg>