<svg xmlns="http://www.w3.org/2000/svg" xmlns:xlink="http://www.w3.org/1999/xlink" width="17" height="15" viewBox="0 0 17 15"><defs><path id="86ema" d="M293.71 1048.988a3.557 3.557 0 0 0-2.646 1.15c-.694.752-1.076 1.792-1.076 2.929 0 1.2.445 2.272 1.445 3.477.965 1.166 2.402 2.39 4.066 3.808l.003.003c.581.495 1.24 1.057 1.927 1.657.69-.601 1.35-1.164 1.933-1.66 1.663-1.418 3.1-2.642 4.066-3.808.999-1.205 1.445-2.278 1.445-3.477 0-1.137-.383-2.177-1.076-2.93a3.557 3.557 0 0 0-2.647-1.15c-.75 0-1.437.239-2.045.709-.541.418-.918.948-1.14 1.318a.619.619 0 0 1-.535.305.619.619 0 0 1-.535-.305c-.221-.37-.599-.9-1.14-1.318a3.275 3.275 0 0 0-2.045-.708zm3.72 14.012a.989.989 0 0 1-.652-.245 195.385 195.385 0 0 0-1.917-1.649l-.003-.002c-1.698-1.448-3.165-2.698-4.186-3.93-1.14-1.376-1.672-2.681-1.672-4.107 0-1.385.475-2.664 1.338-3.6a4.534 4.534 0 0 1 3.372-1.467 4.24 4.24 0 0 1 2.649.914 5.42 5.42 0 0 1 1.071 1.119 5.42 5.42 0 0 1 1.071-1.119 4.24 4.24 0 0 1 2.65-.914c1.301 0 2.499.521 3.372 1.468.862.935 1.337 2.214 1.337 3.599 0 1.426-.531 2.731-1.672 4.108-1.02 1.231-2.487 2.481-4.186 3.928-.58.495-1.238 1.055-1.92 1.652a.99.99 0 0 1-.652.245z"/></defs><g><g opacity=".4" transform="translate(-289 -1048)"><use fill="#4d4d4d" xlink:href="#86ema"/></g></g></svg>