<?xml version="1.0" encoding="UTF-8"?>
<!DOCTYPE svg PUBLIC "-//W3C//DTD SVG 1.1//EN" "http://www.w3.org/Graphics/SVG/1.1/DTD/svg11.dtd">
<svg version="1.1" xmlns="http://www.w3.org/2000/svg" xmlns:xlink="http://www.w3.org/1999/xlink" x="0" y="0" width="16" height="16" viewBox="0, 0, 16, 16">
  <g id="Layer_1">
    <path d="M15.747,2.893 C15.391,3.051 15.022,3.175 14.644,3.265 C15.061,2.869 15.375,2.373 15.552,1.819 L15.552,1.819 C15.602,1.661 15.431,1.525 15.289,1.609 L15.289,1.609 C14.762,1.922 14.195,2.155 13.603,2.306 C13.569,2.315 13.533,2.32 13.497,2.32 C13.389,2.32 13.284,2.279 13.202,2.207 C12.572,1.652 11.761,1.345 10.92,1.345 C10.556,1.345 10.188,1.402 9.827,1.514 C8.708,1.859 7.845,2.781 7.574,3.919 C7.471,4.349 7.444,4.776 7.492,5.192 C7.497,5.239 7.474,5.273 7.46,5.288 C7.435,5.316 7.401,5.331 7.365,5.331 C7.361,5.331 7.356,5.331 7.353,5.331 C4.905,5.104 2.696,3.924 1.136,2.009 L1.136,2.009 C1.056,1.912 0.903,1.923 0.84,2.033 L0.84,2.033 C0.535,2.557 0.373,3.156 0.373,3.767 C0.373,4.702 0.748,5.584 1.401,6.226 C1.127,6.161 0.861,6.059 0.614,5.921 L0.614,5.921 C0.496,5.856 0.348,5.941 0.347,6.077 L0.347,6.077 C0.33,7.465 1.143,8.702 2.362,9.259 C2.337,9.259 2.313,9.26 2.288,9.26 C2.095,9.26 1.899,9.242 1.707,9.205 L1.707,9.205 C1.571,9.179 1.459,9.307 1.501,9.436 L1.501,9.436 C1.896,10.672 2.96,11.581 4.231,11.788 C3.175,12.497 1.945,12.871 0.665,12.871 L0.267,12.871 C0.144,12.871 0.041,12.951 0.009,13.07 C-0.022,13.187 0.035,13.311 0.139,13.372 C1.582,14.211 3.226,14.655 4.896,14.655 C6.358,14.655 7.726,14.365 8.961,13.792 C10.093,13.268 11.094,12.517 11.936,11.563 C12.72,10.674 13.333,9.648 13.758,8.512 C14.163,7.43 14.377,6.276 14.377,5.173 L14.377,5.121 C14.377,4.944 14.457,4.778 14.596,4.664 C15.126,4.233 15.588,3.727 15.967,3.159 L15.967,3.159 C16.07,3.009 15.912,2.82 15.747,2.893 L15.747,2.893 z" fill="#FFFFFF"/>
  </g>
</svg>
