<?xml version="1.0" encoding="UTF-8"?>
<!DOCTYPE svg PUBLIC "-//W3C//DTD SVG 1.1//EN" "http://www.w3.org/Graphics/SVG/1.1/DTD/svg11.dtd">
<svg version="1.1" xmlns="http://www.w3.org/2000/svg" xmlns:xlink="http://www.w3.org/1999/xlink" x="0" y="0" width="16" height="16" viewBox="0, 0, 16, 16">
  <g id="Layer_1">
    <g>
      <path d="M11.584,0 L4.415,0 C1.981,0 -0,1.981 -0,4.415 L-0,11.585 C-0,14.019 1.981,16 4.415,16 L11.584,16 C14.019,16 16,14.019 16,11.585 L16,4.415 C16,1.981 14.019,0 11.584,0 z M14.58,11.585 C14.58,13.236 13.236,14.58 11.585,14.58 L4.415,14.58 C2.763,14.58 1.42,13.236 1.42,11.585 L1.42,4.415 C1.42,2.764 2.763,1.42 4.415,1.42 L11.584,1.42 C13.236,1.42 14.58,2.764 14.58,4.415 L14.58,11.585 z" fill="#FFFFFF"/>
      <path d="M8,3.877 C5.727,3.877 3.877,5.727 3.877,8 C3.877,10.273 5.727,12.123 8,12.123 C10.273,12.123 12.123,10.273 12.123,8 C12.123,5.727 10.273,3.877 8,3.877 z M8,10.703 C6.509,10.703 5.297,9.491 5.297,8 C5.297,6.509 6.509,5.297 8,5.297 C9.491,5.297 10.703,6.509 10.703,8 C10.703,9.491 9.49,10.703 8,10.703 z" fill="#FFFFFF"/>
      <path d="M12.296,2.674 C12.022,2.674 11.753,2.784 11.56,2.978 C11.366,3.171 11.255,3.44 11.255,3.715 C11.255,3.988 11.366,4.257 11.56,4.451 C11.753,4.644 12.022,4.756 12.296,4.756 C12.57,4.756 12.838,4.644 13.032,4.451 C13.226,4.257 13.337,3.988 13.337,3.715 C13.337,3.44 13.226,3.171 13.032,2.978 C12.839,2.784 12.57,2.674 12.296,2.674 z" fill="#FFFFFF"/>
    </g>
  </g>
</svg>
