<?xml version="1.0" encoding="UTF-8"?>
<!DOCTYPE svg PUBLIC "-//W3C//DTD SVG 1.1//EN" "http://www.w3.org/Graphics/SVG/1.1/DTD/svg11.dtd">
<svg version="1.1" xmlns="http://www.w3.org/2000/svg" xmlns:xlink="http://www.w3.org/1999/xlink" x="0" y="0" width="16" height="16" viewBox="0, 0, 16, 16">
  <g id="Layer_1">
    <path d="M14.4,-0 L1.6,-0 C0.72,-0 -0,0.72 -0,1.6 L-0,14.4 C-0,15.28 0.72,16 1.6,16 L14.4,16 C15.28,16 16,15.28 16,14.4 L16,1.6 C16,0.72 15.28,-0 14.4,-0 z M4.8,13.6 L2.4,13.6 L2.4,6.4 L4.8,6.4 L4.8,13.6 z M3.6,5.04 C2.8,5.04 2.16,4.4 2.16,3.6 C2.16,2.8 2.8,2.16 3.6,2.16 C4.4,2.16 5.04,2.8 5.04,3.6 C5.04,4.4 4.4,5.04 3.6,5.04 z M13.6,13.6 L11.2,13.6 L11.2,9.36 C11.2,8.72 10.64,8.16 10,8.16 C9.36,8.16 8.8,8.72 8.8,9.36 L8.8,13.6 L6.4,13.6 L6.4,6.4 L8.8,6.4 L8.8,7.36 C9.2,6.72 10.08,6.24 10.8,6.24 C12.32,6.24 13.6,7.52 13.6,9.04 L13.6,13.6 z" fill="#FFFFFF" id="linkedin-logo"/>
  </g>
</svg>
