<?xml version="1.0" encoding="utf-8"?>
<!-- Generator: Adobe Illustrator 17.0.0, SVG Export Plug-In . SVG Version: 6.00 Build 0)  -->
<!DOCTYPE svg PUBLIC "-//W3C//DTD SVG 1.1//EN" "http://www.w3.org/Graphics/SVG/1.1/DTD/svg11.dtd">
<svg version="1.1" id="Capa_1" xmlns="http://www.w3.org/2000/svg" xmlns:xlink="http://www.w3.org/1999/xlink" x="0px" y="0px"
	 width="9px" height="16px" viewBox="0 0 9 16" enable-background="new 0 0 9 16" xml:space="preserve">
<g>
	<path fill="#FFFFFF" d="M8.5,0.004L6.425,0C4.094,0,2.587,1.546,2.587,3.938v1.816H0.501c-0.18,0-0.326,0.146-0.326,0.326v2.63
		c0,0.18,0.146,0.326,0.326,0.326h2.086v6.638c0,0.18,0.146,0.326,0.326,0.326h2.723c0.18,0,0.326-0.146,0.326-0.326V9.036h2.44
		c0.18,0,0.326-0.146,0.326-0.326l0.001-2.63c0-0.086-0.034-0.17-0.096-0.23C8.572,5.788,8.489,5.753,8.402,5.753H5.961V4.214
		c0-0.74,0.176-1.115,1.14-1.115h1.398c0.18,0,0.326-0.146,0.326-0.326V0.33C8.825,0.15,8.68,0.004,8.5,0.004z"/>
</g>
</svg>
